<svg xmlns="http://www.w3.org/2000/svg" version="1.1" xmlns:xlink="http://www.w3.org/1999/xlink" xmlns:svgjs="http://svgjs.com/svgjs" width="48" height="48"><svg width="48" height="48" viewBox="0 0 48 48" fill="none" xmlns="http://www.w3.org/2000/svg">
<g clip-path="url(#clip0_235_96)">
<path d="M0 24C0 12.6863 0 7.02944 3.51472 3.51472C7.02944 0 12.6863 0 24 0V0C35.3137 0 40.9706 0 44.4853 3.51472C48 7.02944 48 12.6863 48 24V24C48 35.3137 48 40.9706 44.4853 44.4853C40.9706 48 35.3137 48 24 48V48C12.6863 48 7.02944 48 3.51472 44.4853C0 40.9706 0 35.3137 0 24V24Z" fill="#324178"></path>
<path fill-rule="evenodd" clip-rule="evenodd" d="M38 36C42 22 36 12 10 12C10 38 26 38 38 36Z" fill="white"></path>
<path d="M31 27.5C33 23 31.4999 18.5 28 17C24.5 15.5 20.5 17.5 18.5001 22.5C16.5001 27.5 18.5001 32 22 33C25.5 34 29 32 31 27.5Z" fill="#324178"></path>
</g>
<defs>
<clipPath id="SvgjsClipPath1000">
<rect width="48" height="48" fill="white"></rect>
</clipPath>
</defs>
</svg><style>@media (prefers-color-scheme: light) { :root { filter: none; } }
</style></svg>