<?xml version="1.0" standalone="no"?>
<!DOCTYPE svg PUBLIC "-//W3C//DTD SVG 20010904//EN"
 "http://www.w3.org/TR/2001/REC-SVG-20010904/DTD/svg10.dtd">
<svg version="1.0" xmlns="http://www.w3.org/2000/svg"
 width="384.000000pt" height="384.000000pt" viewBox="0 0 384.000000 384.000000"
 preserveAspectRatio="xMidYMid meet">
<metadata>
Created by potrace 1.14, written by Peter Selinger 2001-2017
</metadata>
<g transform="translate(0.000000,384.000000) scale(0.100000,-0.100000)"
fill="#000000" stroke="none">
<path d="M0 1920 l0 -1920 1920 0 1920 0 0 1920 0 1920 -1920 0 -1920 0 0
-1920z m1190 950 c543 -33 926 -116 1247 -270 601 -288 806 -786 632 -1530
-11 -47 -23 -91 -28 -99 -10 -16 -192 -44 -399 -62 -192 -16 -483 -7 -632 19
-585 104 -954 467 -1115 1097 -54 210 -95 542 -95 767 l0 88 113 0 c61 0 186
-5 277 -10z"/>
<path d="M1960 2509 c-134 -26 -292 -144 -386 -289 -207 -320 -207 -698 1
-905 221 -221 566 -166 787 124 58 77 140 240 163 326 25 94 30 256 11 339
-67 284 -312 456 -576 405z"/>
</g>
</svg>
