<svg width="1024" height="460" viewBox="0 0 1024 460" fill="none" xmlns="http://www.w3.org/2000/svg">
<path d="M165 89.5C167 85 165.5 80.5 162 79C158.5 77.5 154.5 79.5 152.5 84.5C150.5 89.5 152.5 94 156 95C159.5 96 163 94 165 89.5Z" fill="black"/>
<path fill-rule="evenodd" clip-rule="evenodd" d="M100 34C129.678 28.4355 142.153 31.4721 143.807 57.4683C181.131 62.8999 205.952 81.4214 208 106C209 118 198 129 192 130C169.429 111.233 165.675 120.508 160.13 134.206C154.743 147.515 147.666 165 120 165C90 165 88 132 112 130L112 136C97.9999 138 99.9999 159 120 159C142.234 159 147.303 144.625 151.904 131.576C153.394 127.35 154.836 123.262 156.795 119.848C155.915 120.111 155.009 120.39 154.081 120.676C144.376 123.664 132.188 127.417 120 122C106.379 115.946 103.638 104.167 104.41 92.7272C67.8551 98.2517 49.5429 124.158 56 148C62.5 172 92 184 128 184C180.411 184 204.948 155.452 231.538 124.516C262.986 87.9287 297.305 48 384 48C452 48 502 80 496 144C490 208 427.5 228 384 228C340.5 228 308 204 308 172C308 140 336 116 382 116C406 116 424 129.969 424 146C424 160 414 168 400 168V162C404 162 408 158 408 154C408 144 398 140 384 140C364 140 336.71 148.969 340 172C342 186 356 196 384 196C412 196 450.774 184 456 148C460.645 116 429.5 92 384 92C317.437 92 290.16 124.578 262.306 157.844C233.249 192.548 203.564 228 128 228C68.5 228 16 196 16 144C16 135.091 17.1742 126.651 19.4825 118.781C18.3913 118.764 16.9159 118.808 15 119L13 116C19.887 105.983 27.166 95.5731 37.0458 87.4713C35.3079 87.2312 32.8852 87 30 87L28 84C38.7145 77.3034 53.0166 70.6069 67.3025 66.9133C65.9217 66.1048 64.1542 65.359 62 65L60 62C77.6279 57.593 95.2558 56.423 111.299 56.1123C111.247 49.1858 101.136 46.5683 93.596 44.6165C91.4129 44.0514 89.4453 43.542 88 43C79.9999 40 80 32 81 26L87 28C87 35 93.0663 35.3001 100 34ZM172 98C176 84 170 74 144 74C144 100 160 100 172 98Z" fill="black"/>
<path d="M542 88V52L578 49V88H622V112H578V164C578 180 586 185 596 185C612 185 616 172 616 164H626C626 188 616 212 588 212C560 212 542 196 542 164V112H518V90L542 88Z" fill="black"/>
<path fill-rule="evenodd" clip-rule="evenodd" d="M660 128H650C650 104 666 80 702 80C736 80 754 102 754 144V168C754 184 754 198 764 198V204C762 206 758 210 742 210C730.745 210 720.48 205.052 717.47 190.979C712.541 200.658 701.051 212 682 212C666 212 647 200 648 176C649 152 671.13 142.478 686 140C696.239 138.293 709.391 139.499 718 143.617C717.962 129.585 715.746 107 688 107C670 107 662 120 660 128ZM717.562 156.629C715.739 180.546 708.36 188 698 188C683.5 188 682 178 682 172C682 166 688 154 702 154C705.478 154 711.98 154 717.562 156.629Z" fill="black"/>
<path d="M780 40V208H816V160L831.554 145.223L860 208H900L854.025 123.876L896 84H864L816 130V37L780 40Z" fill="black"/>
<path fill-rule="evenodd" clip-rule="evenodd" d="M920 128H910C910 104 926 80 962 80C996 80 1014 102 1014 144V168C1014 184 1014 198 1024 198V204C1022 206 1018 210 1002 210C990.745 210 980.48 205.052 977.47 190.979C972.541 200.658 961.051 212 942 212C926 212 907 200 908 176C909 152 931.13 142.478 946 140C956.239 138.293 969.391 139.499 978 143.617C977.962 129.585 975.746 107 948 107C930 107 922 120 920 128ZM977.562 156.629C975.739 180.546 968.36 188 958 188C943.5 188 942 178 942 172C942 166 948 154 962 154C965.478 154 971.98 154 977.562 156.629Z" fill="black"/>
<path d="M32 280V244L68 241V280H112V304H68V356C68 372 76 377 86 377C102 377 106 364 106 356H116C116 380 106 404 78 404C50 404 32 388 32 356V304H8V282L32 280Z" fill="black"/>
<path d="M208 320.004V276L208 280L244 277L244 400H212L209.133 365.592C206.019 386.446 196.584 404 168 404C144 404 132 384 132 356L132 280L168 277L168 336C168 362 172 373 184 373C195.984 373 207.967 364.025 208 320.18L208 320.186V320.004Z" fill="black"/>
<path d="M208 320.004C208 320.058 207.999 320.117 208 320.18Z" fill="black"/>
<path d="M264 232V400H300V352L315.554 337.223L344 400H384L338.025 315.876L380 276H348L300 322V229L264 232Z" fill="black"/>
<path fill-rule="evenodd" clip-rule="evenodd" d="M404 320H394C394 296 410 272 446 272C480 272 498 294 498 336V360C498 376 498 390 508 390V396C506 398 502 402 486 402C474.745 402 464.48 397.052 461.47 382.979C456.541 392.658 445.051 404 426 404C410 404 391 392 392 368C393 344 415.13 334.478 430 332C440.239 330.293 453.391 331.499 462 335.617C461.962 321.585 459.746 299 432 299C414 299 406 312 404 320ZM461.562 348.629C459.739 372.546 452.36 380 442 380C427.5 380 426 370 426 364C426 358 432 346 446 346C449.478 346 455.98 346 461.562 348.629Z" fill="black"/>
<path d="M520 400V232L556 229V304.282C560.053 286.228 570.266 272 596 272C620 272 632 292 632 320V400H596V340C596 314 592 303 580 303C568.016 303 556.033 311.975 556 355.82C556 355.818 556 355.816 556 355.813V355.895C556 355.87 556 355.845 556 355.82C556 355.884 556 355.943 556 355.997V400H520Z" fill="black"/>
<path fill-rule="evenodd" clip-rule="evenodd" d="M660 320H650C650 296 666 272 702 272C736 272 754 294 754 336V360C754 376 754 390 764 390V396C762 398 758 402 742 402C730.745 402 720.48 397.052 717.47 382.979C712.541 392.658 701.051 404 682 404C666 404 647 392 648 368C649 344 671.13 334.478 686 332C696.239 330.293 709.391 331.499 718 335.617C717.962 321.585 715.746 299 688 299C670 299 662 312 660 320ZM717.562 348.629C715.739 372.546 708.36 380 698 380C683.5 380 682 370 682 364C682 358 688 346 702 346C705.478 346 711.98 346 717.562 348.629Z" fill="black"/>
<path fill-rule="evenodd" clip-rule="evenodd" d="M840 303C852 303 856 314 856 340V400H892V320C892 292 880 272 856 272C827.415 272 817.981 289.554 814.867 310.408L812.11 277.324L780 280V400H816V355.997C816 355.943 816 355.884 816 355.82C816.033 311.975 828.016 303 840 303ZM816 355.813C816 355.816 816 355.818 816 355.82C816 355.845 816 355.87 816 355.895V355.813Z" fill="black"/>
<path fill-rule="evenodd" clip-rule="evenodd" d="M943.962 340H1010C1016 296 1000 272 963.962 272C940 272 908 292 908 340C908 382 926 404 959.962 404C995.924 404 1011.96 380 1011.96 356L1001.96 356C999.962 364 991.962 377 973.962 377C946 377 943.962 354 943.962 340ZM984 328C984 312 980 300 966 300C960.834 300 948.228 305.93 944.822 328H984Z" fill="black"/>
</svg>
